<mxfile host="app.diagrams.net" agent="Mozilla/5.0 (Windows NT 10.0; Win64; x64) AppleWebKit/537.36 (KHTML, like Gecko) Chrome/140.0.0.0 Safari/537.36" version="28.2.2">
  <diagram name="Page-1" id="YrlZnvYl19f4c1O1SpIb">
    <mxGraphModel dx="1103" dy="473" grid="1" gridSize="10" guides="1" tooltips="1" connect="1" arrows="1" fold="1" page="1" pageScale="1" pageWidth="1100" pageHeight="850" math="0" shadow="0">
      <root>
        <mxCell id="0" />
        <mxCell id="1" parent="0" />
        <mxCell id="Y8c6E5Kz-DKiWm2LMtte-21" value="Returns SPARQL" style="edgeStyle=orthogonalEdgeStyle;rounded=0;orthogonalLoop=1;jettySize=auto;html=1;entryX=0;entryY=0.75;entryDx=0;entryDy=0;fontSize=12;" parent="1" source="Y8c6E5Kz-DKiWm2LMtte-3" target="Y8c6E5Kz-DKiWm2LMtte-4" edge="1">
          <mxGeometry relative="1" as="geometry">
            <mxPoint x="430" y="380" as="targetPoint" />
          </mxGeometry>
        </mxCell>
        <mxCell id="Y8c6E5Kz-DKiWm2LMtte-3" value="&lt;font style=&quot;font-size: 18px; color: rgb(255, 255, 255);&quot;&gt;SPARQL&lt;/font&gt;&lt;div&gt;&lt;font style=&quot;font-size: 18px; color: rgb(255, 255, 255);&quot;&gt;translation&lt;/font&gt;&lt;/div&gt;&lt;div&gt;&lt;span style=&quot;font-size: 18px; background-color: transparent;&quot;&gt;&lt;font style=&quot;color: rgb(255, 255, 255);&quot;&gt;service&lt;/font&gt;&lt;/span&gt;&lt;/div&gt;" style="rounded=0;whiteSpace=wrap;html=1;fillColor=#3333FF;" parent="1" vertex="1">
          <mxGeometry x="120" y="340" width="160" height="80" as="geometry" />
        </mxCell>
        <mxCell id="Cj_wgpMarKFUxVIkivjS-3" value="&lt;font style=&quot;font-size: 14px;&quot;&gt;Returns results&lt;/font&gt;" style="edgeStyle=orthogonalEdgeStyle;rounded=0;orthogonalLoop=1;jettySize=auto;html=1;entryX=0.5;entryY=1;entryDx=0;entryDy=0;" edge="1" parent="1" source="Y8c6E5Kz-DKiWm2LMtte-4" target="Cj_wgpMarKFUxVIkivjS-2">
          <mxGeometry relative="1" as="geometry" />
        </mxCell>
        <mxCell id="Y8c6E5Kz-DKiWm2LMtte-4" value="&lt;font style=&quot;color: rgb(255, 255, 255);&quot;&gt;Conversation&lt;/font&gt;&lt;div&gt;&lt;font style=&quot;color: rgb(255, 255, 255);&quot;&gt;service&lt;/font&gt;&lt;/div&gt;" style="rounded=0;whiteSpace=wrap;html=1;fontSize=20;fillColor=#3333FF;" parent="1" vertex="1">
          <mxGeometry x="440" y="260" width="160" height="160" as="geometry" />
        </mxCell>
        <mxCell id="Y8c6E5Kz-DKiWm2LMtte-28" value="Returns&lt;div&gt;processed&lt;/div&gt;&lt;div&gt;LLM responses&lt;/div&gt;" style="edgeStyle=orthogonalEdgeStyle;rounded=0;orthogonalLoop=1;jettySize=auto;html=1;entryX=0.5;entryY=1;entryDx=0;entryDy=0;exitX=0.5;exitY=0;exitDx=0;exitDy=0;fontSize=12;" parent="1" source="Y8c6E5Kz-DKiWm2LMtte-5" target="Y8c6E5Kz-DKiWm2LMtte-4" edge="1">
          <mxGeometry x="0.1429" y="-10" relative="1" as="geometry">
            <mxPoint as="offset" />
            <Array as="points">
              <mxPoint x="320" y="470" />
              <mxPoint x="520" y="470" />
            </Array>
          </mxGeometry>
        </mxCell>
        <mxCell id="Y8c6E5Kz-DKiWm2LMtte-5" value="LLM&lt;div&gt;connector&lt;/div&gt;" style="rounded=0;whiteSpace=wrap;html=1;fontSize=20;fillColor=#FFF4C3;" parent="1" vertex="1">
          <mxGeometry x="240" y="500" width="160" height="80" as="geometry" />
        </mxCell>
        <mxCell id="Y8c6E5Kz-DKiWm2LMtte-18" value="&lt;font style=&quot;font-size: 12px;&quot;&gt;Returns&lt;/font&gt;&lt;div&gt;&lt;font style=&quot;font-size: 12px;&quot;&gt;processed&lt;/font&gt;&lt;/div&gt;&lt;div&gt;&lt;font style=&quot;font-size: 12px;&quot;&gt;data specifications&lt;/font&gt;&lt;/div&gt;" style="edgeStyle=orthogonalEdgeStyle;rounded=0;orthogonalLoop=1;jettySize=auto;html=1;exitX=0;exitY=0.5;exitDx=0;exitDy=0;fontSize=14;entryX=1;entryY=0.75;entryDx=0;entryDy=0;" parent="1" source="Y8c6E5Kz-DKiWm2LMtte-7" target="Y8c6E5Kz-DKiWm2LMtte-4" edge="1">
          <mxGeometry relative="1" as="geometry">
            <mxPoint x="600" y="359.5" as="targetPoint" />
            <mxPoint x="710" y="359.5" as="sourcePoint" />
          </mxGeometry>
        </mxCell>
        <mxCell id="Y8c6E5Kz-DKiWm2LMtte-7" value="&lt;font style=&quot;color: rgb(255, 255, 255);&quot;&gt;Data specification service&lt;/font&gt;" style="rounded=0;whiteSpace=wrap;html=1;fontSize=18;fillColor=#3333FF;" parent="1" vertex="1">
          <mxGeometry x="760" y="340" width="160" height="80" as="geometry" />
        </mxCell>
        <mxCell id="Y8c6E5Kz-DKiWm2LMtte-27" style="edgeStyle=orthogonalEdgeStyle;rounded=0;orthogonalLoop=1;jettySize=auto;html=1;entryX=0.25;entryY=1;entryDx=0;entryDy=0;" parent="1" source="Y8c6E5Kz-DKiWm2LMtte-8" target="Y8c6E5Kz-DKiWm2LMtte-7" edge="1">
          <mxGeometry relative="1" as="geometry">
            <mxPoint x="760" y="450" as="targetPoint" />
          </mxGeometry>
        </mxCell>
        <mxCell id="Y8c6E5Kz-DKiWm2LMtte-8" value="Dataspecer&lt;div&gt;connector&lt;/div&gt;" style="rounded=0;whiteSpace=wrap;html=1;fontSize=20;fillColor=#FFF2CC;" parent="1" vertex="1">
          <mxGeometry x="640" y="500" width="160" height="80" as="geometry" />
        </mxCell>
        <mxCell id="Y8c6E5Kz-DKiWm2LMtte-23" value="&lt;font style=&quot;font-size: 12px;&quot;&gt;Returns&lt;/font&gt;&lt;div&gt;&lt;font style=&quot;font-size: 12px;&quot;&gt;data specifications&lt;/font&gt;&lt;/div&gt;" style="edgeStyle=orthogonalEdgeStyle;rounded=0;orthogonalLoop=1;jettySize=auto;html=1;exitX=0.5;exitY=0;exitDx=0;exitDy=0;entryX=0.5;entryY=1;entryDx=0;entryDy=0;" parent="1" source="Y8c6E5Kz-DKiWm2LMtte-9" target="Y8c6E5Kz-DKiWm2LMtte-8" edge="1">
          <mxGeometry relative="1" as="geometry">
            <Array as="points" />
            <mxPoint x="720" y="610" as="targetPoint" />
          </mxGeometry>
        </mxCell>
        <mxCell id="Y8c6E5Kz-DKiWm2LMtte-9" value="&lt;font style=&quot;font-size: 20px;&quot;&gt;Dataspecer&lt;/font&gt;" style="rounded=0;whiteSpace=wrap;html=1;fillColor=#FF9933;" parent="1" vertex="1">
          <mxGeometry x="640" y="680" width="160" height="120" as="geometry" />
        </mxCell>
        <mxCell id="Y8c6E5Kz-DKiWm2LMtte-26" value="Returns&lt;div&gt;responses&lt;/div&gt;" style="edgeStyle=orthogonalEdgeStyle;rounded=0;orthogonalLoop=1;jettySize=auto;html=1;entryX=0.5;entryY=1;entryDx=0;entryDy=0;exitX=0.5;exitY=0;exitDx=0;exitDy=0;fontSize=12;" parent="1" source="Y8c6E5Kz-DKiWm2LMtte-10" target="Y8c6E5Kz-DKiWm2LMtte-5" edge="1">
          <mxGeometry relative="1" as="geometry">
            <Array as="points">
              <mxPoint x="320" y="630" />
              <mxPoint x="320" y="630" />
            </Array>
          </mxGeometry>
        </mxCell>
        <mxCell id="Y8c6E5Kz-DKiWm2LMtte-10" value="&lt;font style=&quot;font-size: 20px;&quot;&gt;LLM&lt;/font&gt;" style="rounded=0;whiteSpace=wrap;html=1;fillColor=#FFF10A;" parent="1" vertex="1">
          <mxGeometry x="240" y="680" width="160" height="120" as="geometry" />
        </mxCell>
        <mxCell id="Y8c6E5Kz-DKiWm2LMtte-12" value="" style="endArrow=none;html=1;rounded=0;strokeWidth=2;" parent="1" edge="1">
          <mxGeometry width="50" height="50" relative="1" as="geometry">
            <mxPoint x="40" y="70" as="sourcePoint" />
            <mxPoint x="1080" y="70" as="targetPoint" />
          </mxGeometry>
        </mxCell>
        <mxCell id="Y8c6E5Kz-DKiWm2LMtte-15" value="" style="endArrow=none;html=1;rounded=0;dashed=1;strokeWidth=1;" parent="1" edge="1">
          <mxGeometry width="50" height="50" relative="1" as="geometry">
            <mxPoint x="70" y="440" as="sourcePoint" />
            <mxPoint x="990" y="440" as="targetPoint" />
          </mxGeometry>
        </mxCell>
        <mxCell id="Y8c6E5Kz-DKiWm2LMtte-31" value="&lt;b&gt;Connectors&lt;/b&gt;&lt;div&gt;&lt;b&gt;layer&lt;/b&gt;&lt;/div&gt;" style="text;strokeColor=none;align=center;fillColor=none;html=1;verticalAlign=middle;whiteSpace=wrap;rounded=0;fontSize=14;" parent="1" vertex="1">
          <mxGeometry x="60" y="480" width="120" height="80" as="geometry" />
        </mxCell>
        <mxCell id="Y8c6E5Kz-DKiWm2LMtte-32" value="&lt;b&gt;Application&lt;/b&gt;&lt;br&gt;&lt;div&gt;&lt;b&gt;layer&lt;/b&gt;&lt;/div&gt;" style="text;strokeColor=none;align=center;fillColor=none;html=1;verticalAlign=middle;whiteSpace=wrap;rounded=0;fontSize=14;" parent="1" vertex="1">
          <mxGeometry x="70" y="70" width="120" height="80" as="geometry" />
        </mxCell>
        <mxCell id="Y8c6E5Kz-DKiWm2LMtte-33" value="&lt;b&gt;External systems&lt;/b&gt;&lt;div&gt;&lt;b&gt;layer&lt;/b&gt;&lt;/div&gt;" style="text;strokeColor=none;align=center;fillColor=none;html=1;verticalAlign=middle;whiteSpace=wrap;rounded=0;fontSize=14;" parent="1" vertex="1">
          <mxGeometry x="80" y="660" width="120" height="80" as="geometry" />
        </mxCell>
        <mxCell id="Cj_wgpMarKFUxVIkivjS-1" value="" style="endArrow=none;html=1;rounded=0;strokeWidth=2;" edge="1" parent="1">
          <mxGeometry width="50" height="50" relative="1" as="geometry">
            <mxPoint x="40" y="660" as="sourcePoint" />
            <mxPoint x="1080" y="660" as="targetPoint" />
          </mxGeometry>
        </mxCell>
        <mxCell id="Cj_wgpMarKFUxVIkivjS-2" value="Request controller" style="rounded=0;whiteSpace=wrap;html=1;fontSize=20;fillColor=#63D4FF;" vertex="1" parent="1">
          <mxGeometry x="360" y="110" width="320" height="80" as="geometry" />
        </mxCell>
      </root>
    </mxGraphModel>
  </diagram>
</mxfile>
